<svg width="51" height="51" viewBox="0 0 51 51" fill="none" xmlns="http://www.w3.org/2000/svg">
<path d="M10 1H40.6377C45.6081 1.0002 49.6377 5.02956 49.6377 10V40.6377C49.6375 45.608 45.608 49.6375 40.6377 49.6377H10C5.02956 49.6377 1.0002 45.6081 1 40.6377V10C1 5.02944 5.02944 1 10 1Z" fill="url(#paint0_linear_1376_1869)"/>
<path d="M10 1H40.6377C45.6081 1.0002 49.6377 5.02956 49.6377 10V40.6377C49.6375 45.608 45.608 49.6375 40.6377 49.6377H10C5.02956 49.6377 1.0002 45.6081 1 40.6377V10C1 5.02944 5.02944 1 10 1Z" stroke="url(#paint1_linear_1376_1869)" stroke-width="2"/>
<g clip-path="url(#clip0_1376_1869)">
<path d="M33.7183 28.7743C33.1259 28.1575 32.4114 27.8277 31.6541 27.8277C30.9029 27.8277 30.1823 28.1514 29.5655 28.7682L27.6357 30.6919C27.4769 30.6064 27.3181 30.527 27.1654 30.4477C26.9456 30.3377 26.7379 30.2339 26.5608 30.124C24.7531 28.9759 23.1103 27.4796 21.5347 25.5437C20.7713 24.5788 20.2583 23.7665 19.8858 22.9421C20.3866 22.484 20.8507 22.0077 21.3027 21.5497C21.4736 21.3787 21.6446 21.2016 21.8156 21.0306C23.0981 19.7481 23.0981 18.087 21.8156 16.8045L20.1484 15.1373C19.9591 14.9479 19.7637 14.7525 19.5805 14.5571C19.214 14.1785 18.8293 13.7876 18.4323 13.4212C17.8399 12.8349 17.1315 12.5234 16.3865 12.5234C15.6414 12.5234 14.9208 12.8349 14.3101 13.4212C14.304 13.4273 14.304 13.4273 14.2979 13.4334L12.2215 15.5281C11.4398 16.3098 10.9939 17.2625 10.8962 18.3679C10.7497 20.1512 11.2749 21.8123 11.6779 22.8993C12.6673 25.5681 14.1452 28.0415 16.3498 30.6919C19.0247 33.8859 22.2431 36.4081 25.9196 38.1853C27.3242 38.851 29.1991 39.6388 31.2938 39.7731C31.422 39.7792 31.5564 39.7853 31.6785 39.7853C33.0893 39.7853 34.274 39.2785 35.2023 38.2708C35.2084 38.2586 35.2206 38.2525 35.2267 38.2403C35.5443 37.8555 35.9107 37.5074 36.2955 37.1349C36.5581 36.8845 36.8268 36.6219 37.0894 36.3471C37.694 35.718 38.0116 34.9852 38.0116 34.234C38.0116 33.4768 37.6879 32.75 37.0711 32.1393L33.7183 28.7743ZM35.9046 35.2051C35.8985 35.2051 35.8985 35.2112 35.9046 35.2051C35.6665 35.4615 35.4222 35.6936 35.1596 35.9501C34.7626 36.3288 34.3595 36.7257 33.9809 37.1715C33.3641 37.8311 32.6374 38.1425 31.6846 38.1425C31.593 38.1425 31.4953 38.1425 31.4037 38.1364C29.5899 38.0204 27.9044 37.312 26.6402 36.7074C23.1836 35.0341 20.1484 32.6584 17.6262 29.6476C15.5437 27.1376 14.1513 24.8169 13.2291 22.3253C12.6612 20.8046 12.4535 19.6198 12.5451 18.5022C12.6062 17.7877 12.881 17.1953 13.3879 16.6885L15.4704 14.6059C15.7697 14.325 16.0872 14.1723 16.3987 14.1723C16.7834 14.1723 17.0949 14.4044 17.2903 14.5998C17.2964 14.6059 17.3025 14.6121 17.3086 14.6182C17.6812 14.9663 18.0354 15.3266 18.4079 15.7113C18.5972 15.9067 18.7926 16.1022 18.9881 16.3037L20.6553 17.9709C21.3027 18.6183 21.3027 19.2168 20.6553 19.8641C20.4782 20.0412 20.3072 20.2183 20.1301 20.3893C19.6171 20.9145 19.1285 21.4031 18.5972 21.8795C18.585 21.8917 18.5728 21.8978 18.5667 21.91C18.0415 22.4352 18.1392 22.9482 18.2491 23.2963C18.2552 23.3146 18.2613 23.3329 18.2674 23.3513C18.701 24.4017 19.3117 25.391 20.24 26.5697L20.2461 26.5758C21.9317 28.6522 23.7088 30.2705 25.6692 31.5103C25.9196 31.6691 26.1761 31.7973 26.4204 31.9195C26.6402 32.0294 26.8479 32.1332 27.025 32.2431C27.0494 32.2553 27.0738 32.2737 27.0982 32.2859C27.3059 32.3897 27.5013 32.4386 27.7028 32.4386C28.2097 32.4386 28.5273 32.121 28.6311 32.0172L30.7197 29.9286C30.9274 29.7209 31.2572 29.4705 31.6419 29.4705C32.0205 29.4705 32.332 29.7087 32.5213 29.9163C32.5274 29.9224 32.5274 29.9224 32.5335 29.9286L35.8985 33.2935C36.5275 33.9165 36.5275 34.5577 35.9046 35.2051Z" fill="url(#paint2_linear_1376_1869)"/>
<path d="M26.4872 17.7332C28.0873 18.0019 29.5408 18.7592 30.7011 19.9195C31.8614 21.0798 32.6126 22.5333 32.8874 24.1334C32.9546 24.5364 33.3027 24.8174 33.6997 24.8174C33.7485 24.8174 33.7913 24.8113 33.8401 24.8051C34.292 24.7319 34.5913 24.3044 34.518 23.8524C34.1882 21.9165 33.2722 20.1516 31.8737 18.7531C30.4751 17.3545 28.7102 16.4385 26.7743 16.1087C26.3223 16.0354 25.9009 16.3347 25.8216 16.7805C25.7422 17.2263 26.0353 17.6599 26.4872 17.7332Z" fill="url(#paint3_linear_1376_1869)"/>
<path d="M39.7482 23.6157C39.2047 20.4278 37.7024 17.5269 35.3939 15.2185C33.0854 12.91 30.1846 11.4077 26.9967 10.8641C26.5509 10.7847 26.1295 11.0901 26.0501 11.5359C25.9768 11.9878 26.2761 12.4092 26.728 12.4886C29.5739 12.9711 32.1694 14.3207 34.2336 16.3788C36.2977 18.443 37.6413 21.0385 38.1237 23.8844C38.1909 24.2874 38.539 24.5684 38.936 24.5684C38.9848 24.5684 39.0276 24.5623 39.0765 24.5562C39.5223 24.489 39.8276 24.0615 39.7482 23.6157Z" fill="url(#paint4_linear_1376_1869)"/>
</g>
<defs>
<linearGradient id="paint0_linear_1376_1869" x1="-1.88221" y1="46.9728" x2="53.5917" y2="13.7049" gradientUnits="userSpaceOnUse">
<stop stop-color="#DDBFFF"/>
<stop offset="1" stop-color="#EDDDFF"/>
</linearGradient>
<linearGradient id="paint1_linear_1376_1869" x1="47.9658" y1="50.6373" x2="2.02101" y2="4.25277" gradientUnits="userSpaceOnUse">
<stop stop-color="#755797"/>
<stop offset="1" stop-color="#070F3D"/>
</linearGradient>
<linearGradient id="paint2_linear_1376_1869" x1="24.4413" y1="39.7853" x2="24.4413" y2="12.5234" gradientUnits="userSpaceOnUse">
<stop stop-color="#000E38"/>
<stop offset="1" stop-color="#3F186A"/>
</linearGradient>
<linearGradient id="paint3_linear_1376_1869" x1="30.1688" y1="24.8174" x2="30.1688" y2="16.0977" gradientUnits="userSpaceOnUse">
<stop stop-color="#000E38"/>
<stop offset="1" stop-color="#3F186A"/>
</linearGradient>
<linearGradient id="paint4_linear_1376_1869" x1="32.8999" y1="24.5684" x2="32.8999" y2="10.8516" gradientUnits="userSpaceOnUse">
<stop stop-color="#000E38"/>
<stop offset="1" stop-color="#3F186A"/>
</linearGradient>
<clipPath id="clip0_1376_1869">
<rect width="28.9356" height="28.9356" fill="white" transform="translate(10.8516 10.8516)"/>
</clipPath>
</defs>
</svg>
