<svg width="80" height="77" viewBox="0 0 80 77" fill="none" xmlns="http://www.w3.org/2000/svg">
<path d="M78.3254 34.2141L72.8707 28.5663C72.4496 28.1317 72.2488 27.5155 72.3338 26.9167L73.429 19.1442C73.879 15.9572 71.7466 13.027 68.579 12.4727L60.8471 11.1167C60.2502 11.0124 59.7249 10.63 59.4429 10.093L55.7691 3.16266C54.2605 0.315633 50.8109 -0.80468 47.9174 0.612977L40.8693 4.06266C40.3246 4.32923 39.6755 4.32923 39.1309 4.06266L32.0827 0.612977C29.1874 -0.804836 25.7415 0.315477 24.231 3.16266L20.5573 10.093C20.2713 10.6377 19.7576 11.0086 19.153 11.1167L11.423 12.4727C8.25336 13.025 6.12289 15.9572 6.57289 19.1422L7.66617 26.9166C7.75117 27.5231 7.55805 28.1256 7.1293 28.5661L1.67461 34.2139C-0.558203 36.5241 -0.558203 40.1475 1.67461 42.4577L7.1293 48.1055C7.55039 48.54 7.75117 49.1563 7.66617 49.755L6.57102 57.5275C6.12102 60.7145 8.25336 63.6447 11.421 64.1991L19.1529 65.555C19.7498 65.6594 20.2751 66.0417 20.5571 66.5788L24.2309 73.5091C25.7413 76.3561 29.1891 77.4764 32.0826 76.0588L39.1307 72.6091C39.6754 72.3425 40.3245 72.3425 40.8691 72.6091L47.9173 76.0588C48.7652 76.4741 49.6595 76.6711 50.5402 76.6711C52.6649 76.6711 54.7027 75.5219 55.7688 73.5092L59.4426 66.5789C59.7285 66.0342 60.2423 65.6634 60.8468 65.5552L68.5768 64.1992C71.7465 63.6469 73.877 60.7147 73.4268 57.5297L72.3335 49.7553C72.2485 49.1488 72.4416 48.5463 72.8704 48.1058L78.3251 42.458C80.5584 40.1477 80.5584 36.5242 78.3254 34.2141ZM75.4802 39.7111L70.0255 45.355C68.7449 46.68 68.1598 48.4841 68.4166 50.3075L69.5099 58.08C69.6605 59.1423 68.9498 60.1197 67.8952 60.3052L60.1613 61.6611C58.3457 61.9799 56.8101 63.0981 55.9468 64.7264L52.273 71.6548C51.7709 72.6052 50.6235 72.9799 49.6559 72.5067L42.6077 69.055C41.7926 68.6572 40.8963 68.4563 40.0002 68.4563C39.1041 68.4563 38.2077 68.6572 37.3927 69.0569L30.3446 72.5047C29.3807 72.9799 28.2296 72.6052 27.7274 71.6548L24.0537 64.7245C23.1902 63.0944 21.6527 61.978 19.8352 61.6611L12.1052 60.3033C11.0507 60.1178 10.3398 59.1425 10.4885 58.08L11.5837 50.3075C11.8405 48.4841 11.2552 46.6802 9.97664 45.357L4.52008 39.7111C3.77648 38.9384 3.77648 37.7333 4.52008 36.9606L9.97477 31.3167C11.2554 29.9917 11.8405 28.1877 11.5837 26.3642L10.4904 18.5917C10.3398 17.5294 11.0505 16.552 12.1051 16.3666L19.839 15.0106C21.6546 14.6919 23.1902 13.5736 24.0535 11.9453L27.7273 5.01688C28.2295 4.06657 29.3807 3.69579 30.3445 4.16501L37.3926 7.61673C39.0227 8.41251 40.9774 8.41438 42.6077 7.61485L49.6559 4.1672C50.6216 3.69204 51.7709 4.06673 52.273 5.01704L55.9468 11.9474C56.8102 13.5775 58.3477 14.6941 60.1652 15.0108L67.8952 16.3686C68.9498 16.5541 69.6607 17.5294 69.512 18.5919L68.4168 26.3644C68.1599 28.1878 68.7452 29.9917 70.0238 31.3149L75.4804 36.9606C76.224 37.7333 76.224 38.9386 75.4802 39.7111Z" fill="url(#paint0_linear_1376_1721)"/>
<path d="M53.2634 25.0717C52.4907 24.299 51.2392 24.299 50.4665 25.0717L26.7318 48.8064C25.9592 49.579 25.9592 50.8306 26.7318 51.6032C27.1181 51.9895 27.6242 52.1828 28.1303 52.1828C28.6364 52.1828 29.1425 51.9896 29.5287 51.6032L53.2634 27.8686C54.0359 27.0959 54.0359 25.8443 53.2634 25.0717Z" fill="url(#paint1_linear_1376_1721)"/>
<path d="M38.0341 28.4506C38.0341 24.0853 34.4839 20.5352 30.1186 20.5352C25.7533 20.5352 22.2031 24.0853 22.2031 28.4506C22.2031 32.8159 25.7533 36.3661 30.1186 36.3661C34.4839 36.3661 38.0341 32.8159 38.0341 28.4506ZM26.1591 28.4506C26.1591 26.268 27.9361 24.4909 30.1188 24.4909C32.3014 24.4909 34.0784 26.268 34.0784 28.4506C34.0784 30.6333 32.3014 32.4103 30.1188 32.4103C27.9359 32.4103 26.1591 30.6333 26.1591 28.4506Z" fill="url(#paint2_linear_1376_1721)"/>
<path d="M49.8881 40.3047C45.5228 40.3047 41.9727 43.8548 41.9727 48.2202C41.9727 52.5855 45.5228 56.1356 49.8881 56.1356C54.2534 56.1356 57.8036 52.5855 57.8036 48.2202C57.8036 43.8548 54.2534 40.3047 49.8881 40.3047ZM49.8881 52.1797C47.7055 52.1797 45.9284 50.4027 45.9284 48.22C45.9284 46.0373 47.7055 44.2603 49.8881 44.2603C52.0708 44.2603 53.8478 46.0373 53.8478 48.22C53.8478 50.4027 52.0708 52.1797 49.8881 52.1797Z" fill="url(#paint3_linear_1376_1721)"/>
<defs>
<linearGradient id="paint0_linear_1376_1721" x1="80.0001" y1="38.3358" x2="0" y2="38.3358" gradientUnits="userSpaceOnUse">
<stop stop-color="#755797"/>
<stop offset="1" stop-color="#9B4DF0"/>
</linearGradient>
<linearGradient id="paint1_linear_1376_1721" x1="53.8428" y1="38.3375" x2="26.1523" y2="38.3375" gradientUnits="userSpaceOnUse">
<stop stop-color="#755797"/>
<stop offset="1" stop-color="#9B4DF0"/>
</linearGradient>
<linearGradient id="paint2_linear_1376_1721" x1="38.0341" y1="28.4506" x2="22.2031" y2="28.4506" gradientUnits="userSpaceOnUse">
<stop stop-color="#755797"/>
<stop offset="1" stop-color="#9B4DF0"/>
</linearGradient>
<linearGradient id="paint3_linear_1376_1721" x1="57.8036" y1="48.2202" x2="41.9727" y2="48.2202" gradientUnits="userSpaceOnUse">
<stop stop-color="#755797"/>
<stop offset="1" stop-color="#9B4DF0"/>
</linearGradient>
</defs>
</svg>
