<svg width="58" height="80" viewBox="0 0 58 80" fill="none" xmlns="http://www.w3.org/2000/svg">
<path d="M64.4903 35.5295H56.7126V31.6018C56.7126 29.0182 54.6113 26.8682 52.0286 26.809C50.5235 26.7745 50.1465 25.3398 47.7229 25.3398H44.1736C42.5438 25.3398 41.0409 25.8897 39.8376 26.8123C38.2269 26.0488 38.0841 26.3053 30.8146 24.6137V22.7702C32.8361 21.2665 34.274 19.5105 34.641 16.6876C35.8105 16.2425 36.644 15.1097 36.644 13.7858C36.644 12.0115 36.644 8.51886 36.644 6.86284C36.644 4.05323 34.3588 1.71496 31.5502 1.65059C30.946 1.63669 30.3723 1.43609 29.8913 1.0702C27.785 -0.531449 25.7872 0.192982 22.7884 0.011132C18.4695 0.011132 14.9559 3.52471 14.9559 7.84364V13.7858C14.9559 15.1097 15.7892 16.2425 16.9589 16.6876C17.3279 19.5255 18.7799 21.2783 20.7852 22.77V24.6135L13.108 26.3037C13.0815 26.3097 13.0552 26.3164 13.0291 26.324C9.34527 27.4087 6.7725 30.8483 6.7725 34.6884V35.5293H5.97355C2.67978 35.5293 0 38.209 0 41.5029V62.0572C0 65.3227 2.63417 67.9831 5.88918 68.0287V77.2954C5.88918 78.7868 7.10261 80.0002 8.59396 80.0002H11.2778C12.7692 80.0002 13.9826 78.7868 13.9826 77.2954V68.0309H27.8461V76.2459C27.8461 78.3161 29.5304 80.0002 31.6006 80.0002H62.1467C64.2169 80.0002 65.901 78.3161 65.901 76.2459V67.8628C68.5331 67.2284 70.4637 64.8634 70.4637 62.0574V53.7398C70.4637 53.0927 69.9392 52.5681 69.2919 52.5681C68.6447 52.5681 68.1202 53.0927 68.1202 53.7398V62.0574C68.1202 63.5594 67.2104 64.8531 65.901 65.4038V59.6049C65.901 55.7647 63.3282 52.3251 59.6444 51.2404C59.6183 51.2328 59.5919 51.2261 59.5653 51.2201L51.8883 49.5301V46.6145C54.7474 44.8034 56.7038 41.5248 56.7112 37.8729H64.49C66.4917 37.8729 68.1201 39.5013 68.1201 41.503V49.0531C68.1201 49.7002 68.6445 50.2248 69.2918 50.2248C69.939 50.2248 70.4635 49.7002 70.4635 49.0531V41.503C70.4638 38.2091 67.7842 35.5295 64.4903 35.5295ZM17.2993 7.8438C17.2993 4.81703 19.7616 2.35471 22.7884 2.35471C26.1911 2.49001 27.2431 2.0007 28.4729 2.93573C29.3497 3.60251 30.3952 3.96824 31.4964 3.99355C33.0426 4.02901 34.3007 5.31618 34.3007 6.863V9.8393C33.8803 9.56871 33.4286 9.21642 33.0259 8.76976C31.7936 7.40339 29.8276 7.07343 28.2445 7.96769C25.8249 9.33453 21.298 11.318 17.2995 9.88351L17.2993 7.8438ZM19.2305 15.6922C19.2169 15.055 18.6965 14.5457 18.0591 14.5457C17.6402 14.5457 17.2993 14.2048 17.2993 13.7859V12.3286C19.8487 13.007 23.937 13.0921 29.397 10.008C30.0172 9.65761 30.7939 9.79368 31.2855 10.3391C32.3008 11.4649 33.5105 12.1418 34.3006 12.4988V13.7858C34.3006 14.2046 33.9597 14.5455 33.5408 14.5455C32.9034 14.5455 32.383 15.055 32.3694 15.6921C32.315 18.2214 31.0288 19.8212 28.9994 21.186C28.9929 21.1902 28.9864 21.1944 28.98 21.199C26.8408 22.6302 24.8369 22.6824 22.6192 21.1985C22.6133 21.1944 22.6072 21.1905 22.6011 21.1865C20.5942 19.8371 19.2851 18.2417 19.2305 15.6922ZM28.4712 24.1128V25.5373V25.5431V25.5554C28.4712 27.0283 27.2729 28.2268 25.7999 28.2268C24.3268 28.2268 23.1285 27.0285 23.1285 25.5554V25.5432C23.1285 25.5412 23.1285 25.539 23.1285 25.537V24.1125C24.9115 24.8155 26.6875 24.8158 28.4712 24.1128ZM11.6393 77.2954C11.6393 77.4946 11.4772 77.6568 11.278 77.6568H8.59412C8.39477 77.6568 8.23276 77.4946 8.23276 77.2954V68.0309H11.6395L11.6393 77.2954ZM5.97355 65.6875C3.97179 65.6875 2.34342 64.059 2.34342 62.0574V41.503C2.34342 39.5013 3.97179 37.8729 5.97355 37.8729H12.6072C13.2543 37.8729 13.7789 37.3483 13.7789 36.7012C13.7789 36.0541 13.2543 35.5295 12.6072 35.5295H9.11592V34.6885C9.11592 31.8934 10.9799 29.3888 13.6536 28.5834L20.9893 26.9685C21.6011 29.0477 23.5255 30.5703 25.8 30.5703C28.0745 30.5703 29.999 29.0476 30.6108 26.9685C38.6818 28.7621 37.7184 28.5056 38.1508 28.652C37.4442 29.7598 37.0327 31.0734 37.0327 32.4823L37.036 35.5296H17.294C16.6469 35.5296 16.1223 36.0543 16.1223 36.7014C16.1223 37.3485 16.6469 37.8731 17.294 37.8731H37.0385C37.0475 41.526 39.0041 44.8007 41.859 46.6114V49.5302L34.182 51.2203C34.1554 51.2262 34.129 51.2329 34.1029 51.2406C30.4191 52.3253 27.8463 55.7648 27.8463 59.6051V65.6878H5.97355V65.6875ZM63.5577 76.2459C63.5577 77.0239 62.9247 77.6568 62.1468 77.6568H31.6008C30.8228 77.6568 30.1897 77.0239 30.1897 76.2459V71.6093C30.1897 67.434 33.5867 64.0371 37.7621 64.0371H55.9855C60.161 64.0371 63.5579 67.434 63.5579 71.6093V76.2459H63.5577ZM63.5577 59.6049V65.2177C61.7374 63.0646 59.019 61.6937 55.9854 61.6937H37.7621C34.7285 61.6937 32.0101 63.0644 30.1897 65.2177V59.6049C30.1897 56.8098 32.0537 54.305 34.7274 53.4997L43.1581 51.6437H50.5892L59.0199 53.4997C61.6939 54.305 63.5577 56.8098 63.5577 59.6049ZM49.5452 49.3002H44.2026V47.6908C45.0572 47.9521 45.9544 48.0957 46.8774 48.0957H46.8993C47.8123 48.0935 48.6998 47.9509 49.5453 47.693V49.3002H49.5452ZM54.3692 37.8306C54.3792 41.9328 51.0615 45.7423 46.8935 45.7523C46.8879 45.7523 46.8824 45.7523 46.8769 45.7523C42.74 45.7523 39.3917 41.9902 39.3819 37.8682L39.3759 32.481C39.3759 29.8356 41.5281 27.6834 44.1734 27.6834H47.7228C49.2264 27.6834 49.6278 29.0982 51.9747 29.1519C53.2949 29.1822 54.369 30.2813 54.369 31.6019L54.3692 37.8306Z" fill="url(#paint0_linear_1376_1748)"/>
<defs>
<linearGradient id="paint0_linear_1376_1748" x1="70.4637" y1="40.0001" x2="0" y2="40.0001" gradientUnits="userSpaceOnUse">
<stop stop-color="#755797"/>
<stop offset="1" stop-color="#9B4DF0"/>
</linearGradient>
</defs>
</svg>
