<svg width="61" height="55" viewBox="0 0 61 55" fill="none" xmlns="http://www.w3.org/2000/svg">
<path d="M11.2055 35.5985C9.58325 35.5985 7.99743 35.1174 6.64861 34.2161C5.2998 33.3147 4.24858 32.0336 3.62791 30.5348C3.00725 29.036 2.84502 27.3867 3.16174 25.7957C3.47846 24.2046 4.2599 22.7433 5.40724 21.5964C6.55457 20.4495 8.01625 19.6686 9.60742 19.3525C11.1986 19.0364 12.8478 19.1993 14.3463 19.8205C15.8449 20.4418 17.1256 21.4935 18.0264 22.8427C18.9273 24.1918 19.4077 25.7779 19.4071 27.4001C19.4046 29.5742 18.5396 31.6585 17.0019 33.1956C15.4643 34.7326 13.3796 35.5968 11.2055 35.5985ZM11.2055 22.3985C10.2163 22.3985 9.24928 22.6919 8.42677 23.2414C7.60426 23.791 6.96319 24.5722 6.58463 25.4861C6.20607 26.4 6.10703 27.4057 6.30001 28.3759C6.493 29.3461 6.96936 30.2373 7.66884 30.9368C8.36833 31.6363 9.25953 32.1126 10.2297 32.3056C11.2 32.4986 12.2056 32.3996 13.1195 32.021C14.0335 31.6424 14.8146 31.0014 15.3642 30.1789C15.9138 29.3563 16.2071 28.3893 16.2071 27.4001C16.2063 26.0739 15.679 24.8022 14.7412 23.8644C13.8034 22.9266 12.5318 22.3994 11.2055 22.3985Z" fill="url(#paint0_linear_1376_1732)"/>
<path d="M20.8 54.4023C20.3757 54.4023 19.9687 54.2338 19.6686 53.9337C19.3686 53.6337 19.2 53.2267 19.2 52.8023V49.6023C19.2 47.4806 18.3571 45.4458 16.8569 43.9455C15.3566 42.4452 13.3217 41.6023 11.2 41.6023C9.07827 41.6023 7.04344 42.4452 5.54315 43.9455C4.04285 45.4458 3.2 47.4806 3.2 49.6023V52.8023C3.2 53.2267 3.03143 53.6337 2.73137 53.9337C2.43131 54.2338 2.02435 54.4023 1.6 54.4023C1.17565 54.4023 0.768688 54.2338 0.468629 53.9337C0.168571 53.6337 0 53.2267 0 52.8023V49.6023C6.2597e-08 46.6319 1.18 43.7832 3.2804 41.6827C5.38081 39.5823 8.22958 38.4023 11.2 38.4023C14.1704 38.4023 17.0192 39.5823 19.1196 41.6827C21.22 43.7832 22.4 46.6319 22.4 49.6023V52.8023C22.4 53.2267 22.2314 53.6337 21.9314 53.9337C21.6313 54.2338 21.2243 54.4023 20.8 54.4023Z" fill="url(#paint1_linear_1376_1732)"/>
<path d="M20.8059 52.3531C20.5016 52.3529 20.2036 52.2659 19.947 52.1023C19.6904 51.9387 19.4857 51.7053 19.357 51.4295C19.2284 51.1537 19.1811 50.847 19.2206 50.5452C19.2601 50.2435 19.3849 49.9592 19.5803 49.7259L41.9803 22.9739C42.2574 22.6646 42.6438 22.4751 43.058 22.4455C43.4722 22.4159 43.8816 22.5484 44.1999 22.8151C44.5181 23.0819 44.7202 23.4619 44.7634 23.8749C44.8067 24.2879 44.6876 24.7015 44.4315 25.0283L22.0315 51.7803C21.8815 51.9595 21.694 52.1037 21.4822 52.2026C21.2705 52.3016 21.0396 52.353 20.8059 52.3531Z" fill="url(#paint2_linear_1376_1732)"/>
<path d="M7.99844 16C7.57409 16 7.16713 15.8314 6.86707 15.5314C6.56701 15.2313 6.39844 14.8243 6.39844 14.4V1.6C6.39844 1.17565 6.56701 0.768688 6.86707 0.468629C7.16713 0.168571 7.57409 0 7.99844 0C8.42278 0 8.82975 0.168571 9.12981 0.468629C9.42987 0.768688 9.59844 1.17565 9.59844 1.6V14.4C9.59844 14.8243 9.42987 15.2313 9.12981 15.5314C8.82975 15.8314 8.42278 16 7.99844 16Z" fill="url(#paint3_linear_1376_1732)"/>
<path d="M59.2031 3.2H4.80312C4.37878 3.2 3.97181 3.03143 3.67175 2.73137C3.3717 2.43131 3.20312 2.02435 3.20312 1.6C3.20312 1.17565 3.3717 0.768688 3.67175 0.468629C3.97181 0.168571 4.37878 0 4.80312 0H59.2031C59.6275 0 60.0344 0.168571 60.3345 0.468629C60.6345 0.768688 60.8031 1.17565 60.8031 1.6C60.8031 2.02435 60.6345 2.43131 60.3345 2.73137C60.0344 3.03143 59.6275 3.2 59.2031 3.2Z" fill="url(#paint4_linear_1376_1732)"/>
<path d="M56.0023 38.4C55.578 38.4 55.171 38.2314 54.871 37.9314C54.5709 37.6313 54.4023 37.2244 54.4023 36.8V1.6C54.4023 1.17565 54.5709 0.768688 54.871 0.46863C55.171 0.168571 55.578 0 56.0023 0C56.4267 0 56.8337 0.168571 57.1337 0.46863C57.4338 0.768688 57.6023 1.17565 57.6023 1.6V36.8C57.6023 37.2244 57.4338 37.6313 57.1337 37.9314C56.8337 38.2314 56.4267 38.4 56.0023 38.4Z" fill="url(#paint5_linear_1376_1732)"/>
<path d="M59.2063 38.3992H40.0063C39.5819 38.3992 39.1749 38.2306 38.8749 37.9306C38.5748 37.6305 38.4062 37.2236 38.4062 36.7992C38.4062 36.3749 38.5748 35.9679 38.8749 35.6678C39.1749 35.3678 39.5819 35.1992 40.0063 35.1992H59.2063C59.6306 35.1992 60.0376 35.3678 60.3376 35.6678C60.6377 35.9679 60.8062 36.3749 60.8062 36.7992C60.8062 37.2236 60.6377 37.6305 60.3376 37.9306C60.0376 38.2306 59.6306 38.3992 59.2063 38.3992Z" fill="url(#paint6_linear_1376_1732)"/>
<path d="M46.4094 12.8016H27.2094C26.785 12.8016 26.3781 12.633 26.078 12.3329C25.7779 12.0329 25.6094 11.6259 25.6094 11.2016C25.6094 10.7772 25.7779 10.3703 26.078 10.0702C26.3781 9.77013 26.785 9.60156 27.2094 9.60156H46.4094C46.8337 9.60156 47.2407 9.77013 47.5407 10.0702C47.8408 10.3703 48.0094 10.7772 48.0094 11.2016C48.0094 11.6259 47.8408 12.0329 47.5407 12.3329C47.2407 12.633 46.8337 12.8016 46.4094 12.8016Z" fill="url(#paint7_linear_1376_1732)"/>
<path d="M46.3953 19.2H20.7953C20.371 19.2 19.964 19.0314 19.6639 18.7314C19.3639 18.4313 19.1953 18.0243 19.1953 17.6C19.1953 17.1757 19.3639 16.7687 19.6639 16.4686C19.964 16.1686 20.371 16 20.7953 16H46.3953C46.8197 16 47.2266 16.1686 47.5267 16.4686C47.8267 16.7687 47.9953 17.1757 47.9953 17.6C47.9953 18.0243 47.8267 18.4313 47.5267 18.7314C47.2266 19.0314 46.8197 19.2 46.3953 19.2Z" fill="url(#paint8_linear_1376_1732)"/>
<defs>
<linearGradient id="paint0_linear_1376_1732" x1="19.4071" y1="27.3969" x2="3.00391" y2="27.3969" gradientUnits="userSpaceOnUse">
<stop stop-color="#755797"/>
<stop offset="1" stop-color="#9B4DF0"/>
</linearGradient>
<linearGradient id="paint1_linear_1376_1732" x1="22.4" y1="46.4023" x2="0" y2="46.4023" gradientUnits="userSpaceOnUse">
<stop stop-color="#755797"/>
<stop offset="1" stop-color="#9B4DF0"/>
</linearGradient>
<linearGradient id="paint2_linear_1376_1732" x1="44.7721" y1="37.3973" x2="19.207" y2="37.3973" gradientUnits="userSpaceOnUse">
<stop stop-color="#755797"/>
<stop offset="1" stop-color="#9B4DF0"/>
</linearGradient>
<linearGradient id="paint3_linear_1376_1732" x1="9.59844" y1="8" x2="6.39844" y2="8" gradientUnits="userSpaceOnUse">
<stop stop-color="#755797"/>
<stop offset="1" stop-color="#9B4DF0"/>
</linearGradient>
<linearGradient id="paint4_linear_1376_1732" x1="60.8031" y1="1.6" x2="3.20313" y2="1.6" gradientUnits="userSpaceOnUse">
<stop stop-color="#755797"/>
<stop offset="1" stop-color="#9B4DF0"/>
</linearGradient>
<linearGradient id="paint5_linear_1376_1732" x1="57.6023" y1="19.2" x2="54.4023" y2="19.2" gradientUnits="userSpaceOnUse">
<stop stop-color="#755797"/>
<stop offset="1" stop-color="#9B4DF0"/>
</linearGradient>
<linearGradient id="paint6_linear_1376_1732" x1="60.8062" y1="36.7992" x2="38.4062" y2="36.7992" gradientUnits="userSpaceOnUse">
<stop stop-color="#755797"/>
<stop offset="1" stop-color="#9B4DF0"/>
</linearGradient>
<linearGradient id="paint7_linear_1376_1732" x1="48.0094" y1="11.2016" x2="25.6094" y2="11.2016" gradientUnits="userSpaceOnUse">
<stop stop-color="#755797"/>
<stop offset="1" stop-color="#9B4DF0"/>
</linearGradient>
<linearGradient id="paint8_linear_1376_1732" x1="47.9953" y1="17.6" x2="19.1953" y2="17.6" gradientUnits="userSpaceOnUse">
<stop stop-color="#755797"/>
<stop offset="1" stop-color="#9B4DF0"/>
</linearGradient>
</defs>
</svg>
