<svg width="58" height="80" viewBox="0 0 58 80" fill="none" xmlns="http://www.w3.org/2000/svg">
<path d="M57.5783 74.4659C54.0141 56.5689 54.1682 57.331 54.1507 57.2574C53.6833 54.9952 52.3692 53.1169 50.2389 51.9402C49.2425 51.3885 48.668 51.3025 48.1657 51.1385L39.4093 48.0971L36.491 46.0955V43.8252C40.7585 41.2901 43.4754 36.924 43.9721 32.1993C47.5382 32.3646 50.0236 28.9562 48.5285 25.9721V16.419C48.5285 9.5106 44.7713 7.10717 43.6233 6.53435C38.0066 -0.170788 27.5184 -1.89047 19.5674 2.18936L19.5521 2.19702C19.4157 2.27718 17.7771 3.0353 15.7593 4.72248C15.2698 5.14592 15.2162 5.88592 15.6395 6.37545C16.0635 6.8656 16.8037 6.91795 17.2924 6.49529C25.0793 -0.0431328 36.6371 1.63702 41.9802 8.22529C42.1118 8.38732 42.2719 8.50685 42.4674 8.57998C42.6193 8.64091 46.1849 10.1415 46.1849 16.419V23.8149C45.5347 23.5396 44.8219 23.3985 44.0622 23.4198V19.5868C44.0622 18.6145 43.3297 17.8109 42.3585 17.7171C40.3891 17.527 39.2857 16.2439 38.7066 15.2012C37.9819 13.8961 36.2519 13.5834 35.1176 14.5528C29.8924 19.0192 23.8762 19.246 19.7493 18.6509C16.632 18.2009 13.7326 20.3242 13.2281 23.4214C12.4693 23.3885 11.7196 23.5229 11.0304 23.8148C11.0349 19.7803 10.5695 15.3906 13.8692 10.3604C14.2232 9.81857 14.0709 9.09247 13.529 8.73841C12.9873 8.38419 12.261 8.53623 11.907 9.07841C7.41636 15.9593 9.02307 22.125 8.68651 25.972C7.19214 28.9549 9.67432 32.3646 13.2428 32.199C13.8253 37.7635 17.2531 40.9646 17.3345 41.104L17.3346 41.1041C17.9431 41.6874 19.0357 42.9058 21.1656 44.0798V46.0951L18.2476 48.0965C6.82745 52.0635 7.98651 51.5821 7.0587 52.149C5.30511 53.2291 4.08964 54.8811 3.58308 56.9152C3.48324 57.3172 3.64902 56.5575 0.0782454 74.4655C0.00637054 74.8272 -0.0314421 75.5323 0.033089 76.1303C0.297776 78.5895 2.04184 79.9998 4.81808 79.9998H37.0186C37.666 79.9998 38.1905 79.4753 38.1905 78.828C38.1905 78.1806 37.666 77.6561 37.0186 77.6561H13.059V66.9189C13.059 66.2716 12.5343 65.7471 11.8871 65.7471C11.2399 65.7471 10.7153 66.2716 10.7153 66.9189V77.6562H4.81777C2.98043 77.6562 2.11762 76.8681 2.38355 74.8895C5.59027 59.2202 5.59714 57.9558 6.12167 56.6719C6.21308 56.5439 6.71839 54.7358 9.19588 53.6841C9.45198 53.5791 9.29229 53.6494 10.1732 53.381C10.2276 53.3654 9.95901 53.4566 14.1676 51.9954L16.9746 57.1772C17.2829 57.7463 17.9938 57.958 18.5632 57.6494C19.1323 57.3411 19.3437 56.6299 19.0354 56.0608L16.411 51.216L18.2057 50.5925C19.0709 52.1897 26.731 66.3299 27.5637 67.8667C28.0776 68.8186 29.386 68.8661 29.9888 68.0349C30.098 67.8844 29.4741 69.0044 39.4358 50.5872L41.2302 51.2105L31.7435 68.7588C30.4929 71.072 27.168 71.0722 25.9159 68.7613L21.6404 60.8688C21.332 60.2997 20.621 60.0878 20.0518 60.3966C19.4827 60.705 19.2713 61.4161 19.5796 61.9852L23.8552 69.8778C25.9938 73.8249 31.671 73.8213 33.8052 69.8735L43.4732 51.9897C47.6724 53.4477 47.4261 53.3644 47.4805 53.38C48.3066 53.6318 48.2147 53.5833 48.458 53.6829C49.3541 54.0646 49.8889 54.505 49.8733 54.4935C50.7922 55.2346 51.4258 56.0908 51.7642 57.3516C51.8197 57.5516 55.2986 74.8003 55.3128 75.3823C55.3477 76.8536 54.7124 77.6562 52.8392 77.6562H46.9413V66.9189C46.9413 66.2716 46.4168 65.7471 45.7694 65.7471C45.1221 65.7471 44.5975 66.2716 44.5975 66.9189V77.6562H42.4868C41.8394 77.6562 41.3149 78.1808 41.3149 78.8281C41.3149 79.4755 41.8394 80 42.4868 80H52.8388C55.615 80 57.3589 78.5897 57.6233 76.1319C57.6872 75.5455 57.6497 74.8253 57.5783 74.4659ZM44.0621 25.7643C45.4135 25.6929 46.623 26.6032 46.623 27.8107C46.623 29.0303 45.4004 29.9281 44.0621 29.8573V25.7643ZM13.1531 29.8573C11.8018 29.9288 10.5921 29.0184 10.5921 27.8109C10.5921 26.5913 11.8148 25.6935 13.1531 25.7643V29.8573ZM19.4143 20.9706C24.0207 21.6354 30.7483 21.3709 36.6401 16.3343L36.6574 16.3389C37.7893 18.3771 39.5752 19.6639 41.7183 19.9976V24.1474L40.3811 24.9367C39.8305 24.1432 38.9143 23.6217 37.8777 23.6217H32.5151C31.2502 23.6217 30.1637 24.3968 29.7035 25.4967H27.5116C27.0515 24.3968 25.9648 23.6217 24.6999 23.6217H19.3373C18.3006 23.6217 17.3842 24.1432 16.8338 24.9367L15.5027 24.1509C15.6181 22.1476 17.429 20.6834 19.4143 20.9706ZM38.5808 26.6685V29.0023C38.5808 30.0188 37.7538 30.8457 36.7372 30.8457H33.6552C32.6388 30.8457 31.8118 30.0187 31.8118 29.0023V26.6685H31.8119C31.8119 26.2874 32.134 25.9654 32.5151 25.9654H37.8777C38.2588 25.9654 38.5808 26.2874 38.5808 26.6685ZM25.403 26.6685V29.0023C25.403 30.0188 24.5762 30.8457 23.5596 30.8457H20.4776C19.461 30.8457 18.6341 30.0187 18.6341 29.0023V26.6685C18.6341 26.2874 18.9562 25.9654 19.3373 25.9654H24.6999C25.081 25.9654 25.403 26.2874 25.403 26.6685ZM18.6571 39.0698C14.8645 34.6491 15.5956 30.3568 15.4968 26.869L16.2907 27.3376V29.0023C16.2907 31.311 18.169 33.1895 20.4777 33.1895H23.5598C25.8685 33.1895 27.7468 31.3112 27.7468 29.0023V27.8403H29.4688V29.0023C29.4688 31.311 31.3471 33.1895 33.6558 33.1895H36.7379C39.0466 33.1895 40.925 31.3112 40.925 29.0023V27.3376L41.719 26.869V30.5332C41.719 37.5032 36.2024 43.5591 28.608 43.6426C28.5923 43.6424 28.4344 43.6413 28.4501 43.6415C26.4243 43.621 24.8676 43.1018 25.0251 43.146C22.7255 42.5082 20.5324 41.1916 18.6571 39.0698ZM28.8284 52.18L23.5093 46.2613V45.1247C25.9554 45.9743 28.4921 46.1696 30.8541 45.8252C31.5132 45.7294 32.2226 45.5724 32.6376 45.4552C32.7362 45.4232 33.3019 45.2879 34.1474 44.9626V46.2615L28.8284 52.18ZM30.1482 56.3563L29.6304 57.4225H28.0265L27.5085 56.3563L28.8284 55.3869L30.1482 56.3563ZM25.7401 59.5807L24.9938 58.2032L25.5882 57.7668L26.0324 58.6814L25.7401 59.5807ZM23.8751 56.1172L20.3146 49.531L22.156 48.2612L27.0924 53.7543C26.8073 53.9633 24.1551 55.9114 23.8751 56.1172ZM28.828 65.2806L27.2802 62.4235L28.1443 59.7661H29.513L30.3755 62.4188C29.8849 63.3256 29.4294 64.1682 28.828 65.2806ZM31.9141 59.5721L31.6244 58.6811L32.0687 57.7664L32.6566 58.1983L31.9141 59.5721ZM33.7819 56.1172C33.4774 55.8936 30.9316 54.0238 30.5648 53.7543L35.5012 48.2612L37.3426 49.531C36.1599 51.7182 34.5493 54.6974 33.7819 56.1172Z" fill="url(#paint0_linear_1376_1678)"/>
<defs>
<linearGradient id="paint0_linear_1376_1678" x1="57.656" y1="40" x2="0" y2="40" gradientUnits="userSpaceOnUse">
<stop stop-color="#755797"/>
<stop offset="1" stop-color="#9B4DF0"/>
</linearGradient>
</defs>
</svg>
