<svg width="80" height="80" viewBox="0 0 80 80" fill="none" xmlns="http://www.w3.org/2000/svg">
<g clip-path="url(#clip0_1376_1684)">
<path d="M64.6875 23.2422C65.5503 23.2422 66.25 22.5427 66.25 21.6797V4.6875C66.25 2.10281 64.1472 0 61.5625 0H4.6875C2.10281 0 0 2.10281 0 4.6875V75.3125C0 77.8972 2.10281 80 4.6875 80H61.5625C64.1472 80 66.25 77.8972 66.25 75.3125V63.8013C66.25 62.9383 65.5503 62.2388 64.6875 62.2388C63.8247 62.2388 63.125 62.9383 63.125 63.8013V75.3125C63.125 76.1741 62.4241 76.875 61.5625 76.875H4.6875C3.82594 76.875 3.125 76.1741 3.125 75.3125V4.6875C3.125 3.82594 3.82594 3.125 4.6875 3.125H61.5625C62.4241 3.125 63.125 3.82594 63.125 4.6875V21.6797C63.125 22.5427 63.8247 23.2422 64.6875 23.2422Z" fill="url(#paint0_linear_1376_1684)"/>
<path d="M33.1289 8.4375C25.2025 8.4375 18.7539 14.8861 18.7539 22.8125C18.7539 26.9245 20.4898 30.6383 23.2667 33.2608C23.3188 33.3164 23.3741 33.3691 23.4345 33.417C25.9925 35.7575 29.3967 37.1873 33.1287 37.1873C36.8608 37.1873 40.265 35.7573 42.823 33.417C42.8834 33.3691 42.9387 33.3162 42.9908 33.2608C45.768 30.6383 47.5039 26.9245 47.5039 22.8125C47.5039 14.8861 41.0553 8.4375 33.1289 8.4375ZM33.1289 34.0625C30.5775 34.0625 28.2228 33.2075 26.3334 31.7706C27.7067 29.3355 30.2694 27.8125 33.1289 27.8125C35.9884 27.8125 38.5511 29.3355 39.9244 31.7706C38.0348 33.2075 35.6803 34.0625 33.1289 34.0625ZM30.6289 22.1875V21.1719C30.6289 19.7934 31.7505 18.6719 33.1289 18.6719C34.5073 18.6719 35.6289 19.7934 35.6289 21.1719V22.1875C35.6289 23.5659 34.5073 24.6875 33.1289 24.6875C31.7505 24.6875 30.6289 23.5659 30.6289 22.1875ZM42.182 29.4817C41.0297 27.7727 39.4327 26.4434 37.5784 25.6228C38.3144 24.6717 38.7539 23.4803 38.7539 22.1875V21.1719C38.7539 18.0702 36.2306 15.5469 33.1289 15.5469C30.0272 15.5469 27.5039 18.0702 27.5039 21.1719V22.1875C27.5039 23.4803 27.9434 24.6717 28.6794 25.6228C26.8252 26.4434 25.2281 27.7727 24.0758 29.4817C22.6962 27.6141 21.8789 25.3073 21.8789 22.8125C21.8789 16.6092 26.9256 11.5625 33.1289 11.5625C39.3322 11.5625 44.3789 16.6092 44.3789 22.8125C44.3789 25.3073 43.5616 27.6141 42.182 29.4817Z" fill="url(#paint1_linear_1376_1684)"/>
<path d="M41.5625 68.4375H33.125C32.2622 68.4375 31.5625 69.137 31.5625 70C31.5625 70.863 32.2622 71.5625 33.125 71.5625H41.5625C42.4253 71.5625 43.125 70.863 43.125 70C43.125 69.137 42.4253 68.4375 41.5625 68.4375Z" fill="url(#paint2_linear_1376_1684)"/>
<path d="M41.5703 59.6875H19.3828C18.52 59.6875 17.8203 60.387 17.8203 61.25C17.8203 62.113 18.52 62.8125 19.3828 62.8125H41.5703C42.4331 62.8125 43.1328 62.113 43.1328 61.25C43.1328 60.387 42.4331 59.6875 41.5703 59.6875Z" fill="url(#paint3_linear_1376_1684)"/>
<path d="M41.5703 50.9375H19.3828C18.52 50.9375 17.8203 51.637 17.8203 52.5C17.8203 53.363 18.52 54.0625 19.3828 54.0625H41.5703C42.4331 54.0625 43.1328 53.363 43.1328 52.5C43.1328 51.637 42.4331 50.9375 41.5703 50.9375Z" fill="url(#paint4_linear_1376_1684)"/>
<path d="M13.8053 42.6453C13.5148 42.3547 13.1117 42.1875 12.6992 42.1875C12.2881 42.1875 11.885 42.3547 11.5945 42.6453C11.3039 42.9359 11.1367 43.3391 11.1367 43.75C11.1367 44.1609 11.3038 44.5641 11.5945 44.8547C11.8867 45.1453 12.2881 45.3125 12.6992 45.3125C13.1117 45.3125 13.5133 45.1453 13.8053 44.8547C14.0959 44.5641 14.2633 44.1609 14.2633 43.75C14.2633 43.3391 14.0961 42.9359 13.8053 42.6453Z" fill="url(#paint5_linear_1376_1684)"/>
<path d="M13.8053 51.3953C13.5133 51.1047 13.1117 50.9375 12.6992 50.9375C12.2881 50.9375 11.8867 51.1047 11.5945 51.3953C11.3039 51.6859 11.1367 52.0891 11.1367 52.5C11.1367 52.9109 11.3038 53.3141 11.5945 53.6047C11.8867 53.8953 12.2881 54.0625 12.6992 54.0625C13.1117 54.0625 13.5133 53.8953 13.8053 53.6047C14.0959 53.3141 14.2633 52.9109 14.2633 52.5C14.2633 52.0891 14.0961 51.6859 13.8053 51.3953Z" fill="url(#paint6_linear_1376_1684)"/>
<path d="M13.8053 60.1453C13.5133 59.8547 13.1117 59.6875 12.6992 59.6875C12.2881 59.6875 11.8867 59.8547 11.5945 60.1453C11.3039 60.4359 11.1367 60.8391 11.1367 61.25C11.1367 61.6609 11.3038 62.0641 11.5945 62.3547C11.885 62.6453 12.2881 62.8125 12.6992 62.8125C13.1117 62.8125 13.5148 62.6453 13.8053 62.3547C14.0959 62.0641 14.2633 61.6609 14.2633 61.25C14.2633 60.8391 14.0961 60.4359 13.8053 60.1453Z" fill="url(#paint7_linear_1376_1684)"/>
<path d="M41.5703 42.1875H19.3828C18.52 42.1875 17.8203 42.887 17.8203 43.75C17.8203 44.613 18.52 45.3125 19.3828 45.3125H41.5703C42.4331 45.3125 43.1328 44.613 43.1328 43.75C43.1328 42.887 42.4331 42.1875 41.5703 42.1875Z" fill="url(#paint8_linear_1376_1684)"/>
<path d="M76.7208 20.3625C75.2028 19.4861 73.4343 19.2533 71.7409 19.7068C70.0478 20.1606 68.6325 21.2465 67.7562 22.7645L48.0934 56.8212C47.9857 57.0079 47.9176 57.215 47.8937 57.4292L46.5097 69.8267C46.4409 70.4436 46.7437 71.0428 47.2812 71.3533C47.5239 71.4933 47.7934 71.5626 48.0623 71.5626C48.3892 71.5626 48.7148 71.4603 48.989 71.2583L59.0334 63.8608C59.207 63.7329 59.3523 63.5706 59.46 63.3839L79.1226 29.3272C80.932 26.1934 79.8545 22.1718 76.7208 20.3625ZM50.0115 66.624L50.7343 60.1503L55.2565 62.7612L50.0115 66.624ZM57.535 60.4681L51.5811 57.0306L67.36 29.7009L73.3139 33.1384L57.535 60.4681ZM76.4164 27.7645L74.8762 30.4322L68.9223 26.9947L70.4625 24.327C70.9215 23.5318 71.6628 22.9631 72.5497 22.7254C73.4368 22.4876 74.3631 22.6098 75.1581 23.0689C75.9532 23.5279 76.522 24.2692 76.7597 25.1561C76.9973 26.0429 76.8754 26.9693 76.4164 27.7645Z" fill="url(#paint9_linear_1376_1684)"/>
</g>
<defs>
<linearGradient id="paint0_linear_1376_1684" x1="66.25" y1="40" x2="0" y2="40" gradientUnits="userSpaceOnUse">
<stop stop-color="#755797"/>
<stop offset="1" stop-color="#9B4DF0"/>
</linearGradient>
<linearGradient id="paint1_linear_1376_1684" x1="47.5039" y1="22.8124" x2="18.7539" y2="22.8124" gradientUnits="userSpaceOnUse">
<stop stop-color="#755797"/>
<stop offset="1" stop-color="#9B4DF0"/>
</linearGradient>
<linearGradient id="paint2_linear_1376_1684" x1="43.125" y1="70" x2="31.5625" y2="70" gradientUnits="userSpaceOnUse">
<stop stop-color="#755797"/>
<stop offset="1" stop-color="#9B4DF0"/>
</linearGradient>
<linearGradient id="paint3_linear_1376_1684" x1="43.1328" y1="61.25" x2="17.8203" y2="61.25" gradientUnits="userSpaceOnUse">
<stop stop-color="#755797"/>
<stop offset="1" stop-color="#9B4DF0"/>
</linearGradient>
<linearGradient id="paint4_linear_1376_1684" x1="43.1328" y1="52.5" x2="17.8203" y2="52.5" gradientUnits="userSpaceOnUse">
<stop stop-color="#755797"/>
<stop offset="1" stop-color="#9B4DF0"/>
</linearGradient>
<linearGradient id="paint5_linear_1376_1684" x1="14.2633" y1="43.75" x2="11.1367" y2="43.75" gradientUnits="userSpaceOnUse">
<stop stop-color="#755797"/>
<stop offset="1" stop-color="#9B4DF0"/>
</linearGradient>
<linearGradient id="paint6_linear_1376_1684" x1="14.2633" y1="52.5" x2="11.1367" y2="52.5" gradientUnits="userSpaceOnUse">
<stop stop-color="#755797"/>
<stop offset="1" stop-color="#9B4DF0"/>
</linearGradient>
<linearGradient id="paint7_linear_1376_1684" x1="14.2633" y1="61.25" x2="11.1367" y2="61.25" gradientUnits="userSpaceOnUse">
<stop stop-color="#755797"/>
<stop offset="1" stop-color="#9B4DF0"/>
</linearGradient>
<linearGradient id="paint8_linear_1376_1684" x1="43.1328" y1="43.75" x2="17.8203" y2="43.75" gradientUnits="userSpaceOnUse">
<stop stop-color="#755797"/>
<stop offset="1" stop-color="#9B4DF0"/>
</linearGradient>
<linearGradient id="paint9_linear_1376_1684" x1="80.0006" y1="45.5215" x2="46.5" y2="45.5215" gradientUnits="userSpaceOnUse">
<stop stop-color="#755797"/>
<stop offset="1" stop-color="#9B4DF0"/>
</linearGradient>
<clipPath id="clip0_1376_1684">
<rect width="80" height="80" fill="white"/>
</clipPath>
</defs>
</svg>
