<svg width="52" height="52" viewBox="0 0 52 52" fill="none" xmlns="http://www.w3.org/2000/svg">
<rect x="1" y="1" width="50" height="50" rx="9" fill="url(#paint0_linear_1376_1886)"/>
<rect x="1" y="1" width="50" height="50" rx="9" stroke="url(#paint1_linear_1376_1886)" stroke-width="2"/>
<g clip-path="url(#clip0_1376_1886)">
<path d="M28.0033 40.8002H23.2449C22.4501 40.8002 21.8035 40.1537 21.8035 39.3589V28.6259H19.0273C18.2325 28.6259 17.5859 27.9791 17.5859 27.1845V22.5854C17.5859 21.7906 18.2325 21.144 19.0273 21.144H21.8035V18.841C21.8035 16.5574 22.5206 14.6146 23.8769 13.2228C25.2394 11.8248 27.1435 11.0859 29.3833 11.0859L33.0123 11.0918C33.8058 11.0932 34.4512 11.7397 34.4512 12.5332V16.8034C34.4512 17.5982 33.8049 18.2447 33.0103 18.2447L30.5669 18.2456C29.8217 18.2456 29.632 18.395 29.5914 18.4408C29.5245 18.5168 29.4449 18.7315 29.4449 19.3243V21.1438H32.8267C33.0812 21.1438 33.3279 21.2066 33.5399 21.3249C33.9971 21.5804 34.2814 22.0635 34.2814 22.5856L34.2796 27.1847C34.2796 27.9791 33.633 28.6256 32.8382 28.6256H29.4449V39.3589C29.4449 40.1537 28.7982 40.8002 28.0033 40.8002ZM23.5455 39.0582H27.7027V27.846C27.7027 27.3153 28.1346 26.8837 28.6651 26.8837H32.5376L32.5392 22.886H28.6649C28.1344 22.886 27.7027 22.4544 27.7027 21.9237V19.3243C27.7027 18.6437 27.7719 17.8698 28.2856 17.2881C28.9063 16.5848 29.8845 16.5037 30.5664 16.5037L32.7092 16.5028V12.8334L29.3819 12.8279C25.7823 12.8279 23.5455 15.1321 23.5455 18.841V21.9237C23.5455 22.4541 23.1138 22.886 22.5834 22.886H19.3279V26.8837H22.5834C23.1138 26.8837 23.5455 27.3153 23.5455 27.846V39.0582Z" fill="url(#paint2_linear_1376_1886)"/>
</g>
<defs>
<linearGradient id="paint0_linear_1376_1886" x1="-1.93286" y1="48.2368" x2="55.0339" y2="14.0737" gradientUnits="userSpaceOnUse">
<stop stop-color="#DDBFFF"/>
<stop offset="1" stop-color="#EDDDFF"/>
</linearGradient>
<linearGradient id="paint1_linear_1376_1886" x1="49.2566" y1="52" x2="2.0754" y2="4.36722" gradientUnits="userSpaceOnUse">
<stop stop-color="#755797"/>
<stop offset="1" stop-color="#070F3D"/>
</linearGradient>
<linearGradient id="paint2_linear_1376_1886" x1="26.0186" y1="40.8002" x2="26.0186" y2="11.0859" gradientUnits="userSpaceOnUse">
<stop stop-color="#000E38"/>
<stop offset="1" stop-color="#3F186A"/>
</linearGradient>
<clipPath id="clip0_1376_1886">
<rect width="29.6563" height="29.7143" fill="white" transform="translate(11.1719 11.1445)"/>
</clipPath>
</defs>
</svg>
