<svg width="309" height="166" viewBox="0 0 309 166" fill="none" xmlns="http://www.w3.org/2000/svg">
<g clip-path="url(#clip0_1376_1376)">
<path fill-rule="evenodd" clip-rule="evenodd" d="M46.2889 11.9258C31.9034 26.3738 22.3283 46.6126 20.8499 69.4428C17.8364 116.204 49.962 156.097 92.6066 158.551L92.2086 164.766C48.2676 162.231 15.1753 121.135 18.2799 72.9516C19.8606 48.4817 30.4706 26.9013 46.3002 11.9258H46.2889Z" fill="#ED923A" fill-opacity="0.3"/>
<path fill-rule="evenodd" clip-rule="evenodd" d="M65.2085 159.915C56.8956 162.632 51.9148 154.892 44.8755 153.666C37.8363 152.439 35.6302 156.67 30.9336 158.206C41.555 166.749 53.0065 167.242 65.1971 159.915H65.2085Z" fill="#ED923A" fill-opacity="0.3"/>
<path fill-rule="evenodd" clip-rule="evenodd" d="M50.2329 148.747C41.6357 149.573 38.1786 140.835 31.5375 138.049C24.8963 135.262 21.9851 138.943 17.1406 139.413C25.9652 150.203 37.0301 153.242 50.2329 148.747Z" fill="#ED923A" fill-opacity="0.3"/>
<path fill-rule="evenodd" clip-rule="evenodd" d="M34.3158 131.58C26.6284 130.926 24.7406 122.613 19.2594 119.081C13.7667 115.549 10.7191 118.336 6.375 117.969C12.7092 128.965 22.0682 133.449 34.3271 131.58H34.3158Z" fill="#ED923A" fill-opacity="0.3"/>
<path fill-rule="evenodd" clip-rule="evenodd" d="M25.57 114.966C18.5535 112.684 18.3147 104.508 13.8683 100.013C9.42186 95.5185 6.07852 97.4679 2.12109 96.1836C6.01029 107.834 13.8796 114.049 25.5813 114.955L25.57 114.966Z" fill="#ED923A" fill-opacity="0.3"/>
<path fill-rule="evenodd" clip-rule="evenodd" d="M20.0373 97.9273C13.5098 94.3267 14.5788 86.2083 10.9284 80.9221C7.27802 75.636 3.6845 76.9202 0 74.8906C1.95597 87.1485 8.68814 94.7854 20.0373 97.9273Z" fill="#ED923A" fill-opacity="0.3"/>
<path fill-rule="evenodd" clip-rule="evenodd" d="M18.4092 79.3478C12.7915 74.2681 15.4411 66.5625 12.9507 60.508C10.4602 54.4536 6.70748 54.855 3.53472 51.9883C3.00024 64.4641 8.01525 73.5686 18.4092 79.3478Z" fill="#ED923A" fill-opacity="0.3"/>
<path fill-rule="evenodd" clip-rule="evenodd" d="M20.54 58.5845C16.8782 52.5071 21.0403 46.4986 20.3239 40.4671C19.6188 34.4241 16.2641 33.7017 14.1944 30.2617C10.726 41.0634 12.898 50.5119 20.54 58.5845Z" fill="#ED923A" fill-opacity="0.3"/>
<path fill-rule="evenodd" clip-rule="evenodd" d="M24.6658 40.9807C23.1078 34.6281 28.1797 30.7524 29.1236 25.3401C30.0674 19.9278 27.4064 18.2766 26.5308 14.6875C20.8221 22.9091 20.2535 31.6812 24.6771 40.9692L24.6658 40.9807Z" fill="#ED923A" fill-opacity="0.3"/>
<path fill-rule="evenodd" clip-rule="evenodd" d="M33.3839 26.6246C32.8381 21.7971 36.8865 19.5267 38.0692 15.6739C39.2518 11.8211 37.4664 10.3075 37.1594 7.58984C32.2467 12.9792 31.0072 19.3318 33.3726 26.6246H33.3839Z" fill="#ED923A" fill-opacity="0.3"/>
<path fill-rule="evenodd" clip-rule="evenodd" d="M42.0118 14.9394C42.8419 10.7425 46.788 10.1348 48.778 7.30253C50.7795 4.47025 49.7105 2.64705 50.1768 0.273438C44.6955 3.19745 42.0004 8.11667 42.0118 14.9394Z" fill="#ED923A" fill-opacity="0.3"/>
<path fill-rule="evenodd" clip-rule="evenodd" d="M76.734 154.01C71.5825 147.899 75.0623 140.663 73.1632 134.15C71.2641 127.625 67.4431 127.35 64.5319 123.91C62.7011 136.306 66.8291 146.339 76.734 154.022V154.01Z" fill="#ED923A" fill-opacity="0.3"/>
<path fill-rule="evenodd" clip-rule="evenodd" d="M61.7737 146.705C56.7587 140.639 60.3181 133.403 58.5441 126.913C56.7701 120.423 52.9832 120.159 50.1516 116.742C48.1388 129.103 52.0848 139.091 61.7737 146.705Z" fill="#ED923A" fill-opacity="0.3"/>
<path fill-rule="evenodd" clip-rule="evenodd" d="M45.0549 132.886C41.8139 126.293 46.4991 120.64 46.2489 114.425C45.9988 108.199 42.6554 107.086 40.8245 103.371C36.4691 113.978 37.9475 123.828 45.0549 132.898V132.886Z" fill="#ED923A" fill-opacity="0.3"/>
<path fill-rule="evenodd" clip-rule="evenodd" d="M32.309 115.686C30.535 108.933 35.8798 104.678 36.8009 98.8762C37.7106 93.0741 34.8449 91.3655 33.8328 87.5586C27.8739 96.4568 27.4191 105.859 32.309 115.686Z" fill="#ED923A" fill-opacity="0.3"/>
<path fill-rule="evenodd" clip-rule="evenodd" d="M24.9515 94.6682C24.2578 88.4532 29.4889 85.5292 31.0127 80.5641C32.548 75.599 30.2508 73.6612 29.8642 70.1523C23.5187 77.0782 21.9152 85.2769 24.9515 94.6682Z" fill="#ED923A" fill-opacity="0.3"/>
<path fill-rule="evenodd" clip-rule="evenodd" d="M23.6623 72.8821C24.3674 67.2979 29.4847 66.0594 31.8501 62.1264C34.2154 58.1933 32.6461 55.9229 33.0327 52.7695C26.1073 57.2071 23.0141 63.9381 23.6623 72.8821Z" fill="#ED923A" fill-opacity="0.3"/>
<path fill-rule="evenodd" clip-rule="evenodd" d="M26.793 52.3913C28.5556 47.7817 33.1499 47.9996 35.9815 45.2247C38.8017 42.4382 37.9488 40.099 38.9382 37.4961C32.1378 39.5716 28.1121 44.5711 26.793 52.3913Z" fill="#ED923A" fill-opacity="0.3"/>
<path fill-rule="evenodd" clip-rule="evenodd" d="M33.0703 36.7071C35.2423 33.0149 39.177 33.9895 42.02 32.0631C44.8516 30.1367 44.4422 27.958 45.6704 25.8711C39.5182 26.5018 35.3333 30.1482 33.0703 36.7071Z" fill="#ED923A" fill-opacity="0.3"/>
<path fill-rule="evenodd" clip-rule="evenodd" d="M40.9844 22.7368C43.0427 19.9389 46.1586 21.1085 48.6036 19.8128C51.0485 18.5171 50.9007 16.7053 52.0606 15.1229C47.0229 15.0427 43.3384 17.6112 40.9844 22.7253V22.7368Z" fill="#ED923A" fill-opacity="0.3"/>
<path fill-rule="evenodd" clip-rule="evenodd" d="M50.3906 9.78085C52.358 6.44404 55.906 7.32698 58.4647 5.58404C61.0234 3.85256 60.6595 1.88029 61.7625 -0.0117188C56.2017 0.55015 52.4262 3.85256 50.3906 9.76939V9.78085Z" fill="#ED923A" fill-opacity="0.3"/>
</g>
<g clip-path="url(#clip1_1376_1376)">
<path fill-rule="evenodd" clip-rule="evenodd" d="M262.586 11.9258C276.972 26.3738 286.547 46.6126 288.025 69.4428C291.039 116.204 258.913 156.097 216.268 158.551L216.666 164.766C260.607 162.231 293.7 121.135 290.595 72.9516C289.014 48.4817 278.404 26.9013 262.575 11.9258H262.586Z" fill="#ED923A" fill-opacity="0.3"/>
<path fill-rule="evenodd" clip-rule="evenodd" d="M243.659 159.915C251.972 162.632 256.952 154.892 263.992 153.666C271.031 152.439 273.237 156.67 277.934 158.206C267.312 166.749 255.861 167.242 243.67 159.915H243.659Z" fill="#ED923A" fill-opacity="0.3"/>
<path fill-rule="evenodd" clip-rule="evenodd" d="M258.638 148.747C267.235 149.573 270.692 140.835 277.334 138.049C283.975 135.262 286.886 138.943 291.73 139.413C282.906 150.203 271.841 153.242 258.638 148.747Z" fill="#ED923A" fill-opacity="0.3"/>
<path fill-rule="evenodd" clip-rule="evenodd" d="M274.551 131.58C282.239 130.926 284.127 122.613 289.608 119.081C295.1 115.549 298.148 118.336 302.492 117.969C296.158 128.965 286.799 133.449 274.54 131.58H274.551Z" fill="#ED923A" fill-opacity="0.3"/>
<path fill-rule="evenodd" clip-rule="evenodd" d="M283.309 114.966C290.325 112.684 290.564 104.508 295.011 100.013C299.457 95.5185 302.8 97.4679 306.758 96.1836C302.869 107.834 294.999 114.049 283.298 114.955L283.309 114.966Z" fill="#ED923A" fill-opacity="0.3"/>
<path fill-rule="evenodd" clip-rule="evenodd" d="M288.834 97.9273C295.361 94.3267 294.292 86.2083 297.943 80.9221C301.593 75.636 305.187 76.9202 308.871 74.8906C306.915 87.1485 300.183 94.7854 288.834 97.9273Z" fill="#ED923A" fill-opacity="0.3"/>
<path fill-rule="evenodd" clip-rule="evenodd" d="M290.458 79.3478C296.076 74.2681 293.426 66.5625 295.917 60.508C298.407 54.4536 302.16 54.855 305.332 51.9883C305.867 64.4641 300.852 73.5686 290.458 79.3478Z" fill="#ED923A" fill-opacity="0.3"/>
<path fill-rule="evenodd" clip-rule="evenodd" d="M288.331 58.5845C291.993 52.5071 287.831 46.4986 288.547 40.4671C289.252 34.4241 292.607 33.7017 294.677 30.2617C298.145 41.0634 295.973 50.5119 288.331 58.5845Z" fill="#ED923A" fill-opacity="0.3"/>
<path fill-rule="evenodd" clip-rule="evenodd" d="M284.205 40.9807C285.763 34.6281 280.691 30.7524 279.748 25.3401C278.804 19.9278 281.465 18.2766 282.34 14.6875C288.049 22.9091 288.618 31.6812 284.194 40.9692L284.205 40.9807Z" fill="#ED923A" fill-opacity="0.3"/>
<path fill-rule="evenodd" clip-rule="evenodd" d="M275.495 26.6246C276.041 21.7971 271.992 19.5267 270.81 15.6739C269.627 11.8211 271.412 10.3075 271.72 7.58984C276.632 12.9792 277.872 19.3318 275.506 26.6246H275.495Z" fill="#ED923A" fill-opacity="0.3"/>
<path fill-rule="evenodd" clip-rule="evenodd" d="M266.867 14.9433C266.037 10.7464 262.091 10.1387 260.101 7.30644C258.099 4.47416 259.168 2.65095 258.702 0.277344C264.183 3.20135 266.879 8.12057 266.867 14.9433Z" fill="#ED923A" fill-opacity="0.3"/>
<path fill-rule="evenodd" clip-rule="evenodd" d="M232.133 154.01C237.285 147.899 233.805 140.663 235.704 134.15C237.603 127.625 241.424 127.35 244.335 123.91C246.166 136.306 242.038 146.339 232.133 154.022V154.01Z" fill="#ED923A" fill-opacity="0.3"/>
<path fill-rule="evenodd" clip-rule="evenodd" d="M247.101 146.705C252.116 140.639 248.557 133.403 250.331 126.913C252.105 120.423 255.892 120.159 258.723 116.742C260.736 129.103 256.79 139.091 247.101 146.705Z" fill="#ED923A" fill-opacity="0.3"/>
<path fill-rule="evenodd" clip-rule="evenodd" d="M263.816 132.886C267.057 126.293 262.372 120.64 262.622 114.425C262.872 108.199 266.216 107.086 268.047 103.371C272.402 113.978 270.924 123.828 263.816 132.898V132.886Z" fill="#ED923A" fill-opacity="0.3"/>
<path fill-rule="evenodd" clip-rule="evenodd" d="M276.562 115.686C278.336 108.933 272.991 104.678 272.07 98.8762C271.16 93.0741 274.026 91.3655 275.038 87.5586C280.997 96.4568 281.452 105.859 276.562 115.686Z" fill="#ED923A" fill-opacity="0.3"/>
<path fill-rule="evenodd" clip-rule="evenodd" d="M283.931 94.6682C284.625 88.4532 279.394 85.5292 277.87 80.5641C276.335 75.599 278.632 73.6612 279.019 70.1523C285.364 77.0782 286.968 85.2769 283.931 94.6682Z" fill="#ED923A" fill-opacity="0.3"/>
<path fill-rule="evenodd" clip-rule="evenodd" d="M285.209 72.8821C284.504 67.2979 279.386 66.0594 277.021 62.1264C274.656 58.1933 276.225 55.9229 275.838 52.7695C282.764 57.2071 285.857 63.9381 285.209 72.8821Z" fill="#ED923A" fill-opacity="0.3"/>
<path fill-rule="evenodd" clip-rule="evenodd" d="M282.078 52.3913C280.315 47.7817 275.721 47.9996 272.89 45.2247C270.069 42.4382 270.922 40.099 269.933 37.4961C276.733 39.5716 280.759 44.5711 282.078 52.3913Z" fill="#ED923A" fill-opacity="0.3"/>
<path fill-rule="evenodd" clip-rule="evenodd" d="M275.797 36.7071C273.625 33.0149 269.69 33.9895 266.847 32.0631C264.016 30.1367 264.425 27.958 263.197 25.8711C269.349 26.5018 273.534 30.1482 275.797 36.7071Z" fill="#ED923A" fill-opacity="0.3"/>
<path fill-rule="evenodd" clip-rule="evenodd" d="M267.887 22.7368C265.828 19.9389 262.713 21.1085 260.268 19.8128C257.823 18.5171 257.97 16.7053 256.81 15.1229C261.848 15.0427 265.533 17.6112 267.887 22.7253V22.7368Z" fill="#ED923A" fill-opacity="0.3"/>
<path fill-rule="evenodd" clip-rule="evenodd" d="M258.48 9.78085C256.513 6.44404 252.965 7.32698 250.406 5.58404C247.848 3.85256 248.212 1.88029 247.109 -0.0117188C252.669 0.55015 256.445 3.85256 258.48 9.76939V9.78085Z" fill="#ED923A" fill-opacity="0.3"/>
</g>
<defs>
<clipPath id="clip0_1376_1376">
<rect width="92.59" height="165.052" fill="white"/>
</clipPath>
<clipPath id="clip1_1376_1376">
<rect width="92.59" height="165.052" fill="white" transform="matrix(-1 0 0 1 308.871 0)"/>
</clipPath>
</defs>
</svg>
